<?xml version="1.0" encoding="UTF-8" standalone="no"?>
<!DOCTYPE svg PUBLIC "-//W3C//DTD SVG 1.1//EN" "http://www.w3.org/Graphics/SVG/1.1/DTD/svg11.dtd">
<svg width="100%" height="100%" viewBox="0 0 1280 800" version="1.1" xmlns="http://www.w3.org/2000/svg" xmlns:xlink="http://www.w3.org/1999/xlink" xml:space="preserve" xmlns:serif="http://www.serif.com/" style="fill-rule:evenodd;clip-rule:evenodd;stroke-linecap:round;stroke-linejoin:round;stroke-miterlimit:1.5;">
    <g transform="matrix(1,0,0,1,-438.277,50.1128)">
        <g transform="matrix(300,0,0,300,440.356,290.538)">
            <path d="M0.412,-0.281L0.412,-0.365L0.715,-0.365L0.715,-0.1C0.669,-0.063 0.621,-0.035 0.571,-0.016C0.522,0.003 0.471,0.012 0.419,0.012C0.349,0.012 0.285,-0.003 0.227,-0.033C0.17,-0.063 0.126,-0.107 0.097,-0.164C0.068,-0.221 0.053,-0.284 0.053,-0.354C0.053,-0.424 0.068,-0.489 0.097,-0.55C0.126,-0.61 0.168,-0.655 0.223,-0.684C0.277,-0.713 0.34,-0.728 0.412,-0.728C0.463,-0.728 0.51,-0.72 0.552,-0.703C0.594,-0.686 0.627,-0.663 0.65,-0.633C0.674,-0.603 0.692,-0.564 0.705,-0.516L0.619,-0.492C0.608,-0.529 0.595,-0.557 0.579,-0.578C0.563,-0.599 0.54,-0.616 0.511,-0.628C0.481,-0.641 0.448,-0.647 0.412,-0.647C0.369,-0.647 0.331,-0.64 0.3,-0.627C0.268,-0.614 0.243,-0.597 0.223,-0.575C0.204,-0.554 0.189,-0.53 0.178,-0.504C0.16,-0.46 0.151,-0.412 0.151,-0.36C0.151,-0.297 0.162,-0.243 0.184,-0.2C0.206,-0.157 0.238,-0.125 0.28,-0.104C0.322,-0.084 0.366,-0.073 0.414,-0.073C0.455,-0.073 0.495,-0.081 0.534,-0.097C0.573,-0.113 0.602,-0.13 0.623,-0.147L0.623,-0.281L0.412,-0.281Z" style="fill-rule:nonzero;"/>
        </g>
        <g transform="matrix(300,0,0,300,673.706,290.538)">
            <path d="M-0.001,0L0.273,-0.716L0.375,-0.716L0.668,0L0.561,0L0.477,-0.217L0.178,-0.217L0.099,0L-0.001,0ZM0.205,-0.294L0.448,-0.294L0.373,-0.492C0.35,-0.552 0.333,-0.602 0.322,-0.641C0.313,-0.595 0.3,-0.549 0.284,-0.504L0.205,-0.294Z" style="fill-rule:nonzero;"/>
        </g>
        <g transform="matrix(300,0,0,300,873.803,290.538)">
            <path d="M0.077,0L0.077,-0.716L0.324,-0.716C0.379,-0.716 0.422,-0.712 0.451,-0.706C0.492,-0.696 0.527,-0.679 0.556,-0.654C0.594,-0.622 0.622,-0.582 0.641,-0.532C0.66,-0.482 0.669,-0.426 0.669,-0.362C0.669,-0.307 0.663,-0.259 0.65,-0.217C0.637,-0.175 0.621,-0.141 0.601,-0.113C0.581,-0.086 0.559,-0.064 0.536,-0.048C0.512,-0.032 0.484,-0.02 0.45,-0.012C0.417,-0.004 0.379,0 0.335,0L0.077,0ZM0.172,-0.084L0.325,-0.084C0.372,-0.084 0.409,-0.089 0.436,-0.098C0.463,-0.106 0.484,-0.119 0.5,-0.135C0.522,-0.157 0.54,-0.187 0.552,-0.225C0.565,-0.263 0.571,-0.309 0.571,-0.363C0.571,-0.438 0.559,-0.496 0.534,-0.536C0.51,-0.576 0.48,-0.603 0.445,-0.617C0.419,-0.626 0.379,-0.631 0.322,-0.631L0.172,-0.631L0.172,-0.084Z" style="fill-rule:nonzero;"/>
        </g>
        <g transform="matrix(300,0,0,300,1090.45,290.538)">
            <path d="M0.412,-0.281L0.412,-0.365L0.715,-0.365L0.715,-0.1C0.669,-0.063 0.621,-0.035 0.571,-0.016C0.522,0.003 0.471,0.012 0.419,0.012C0.349,0.012 0.285,-0.003 0.227,-0.033C0.17,-0.063 0.126,-0.107 0.097,-0.164C0.068,-0.221 0.053,-0.284 0.053,-0.354C0.053,-0.424 0.068,-0.489 0.097,-0.55C0.126,-0.61 0.168,-0.655 0.223,-0.684C0.277,-0.713 0.34,-0.728 0.412,-0.728C0.463,-0.728 0.51,-0.72 0.552,-0.703C0.594,-0.686 0.627,-0.663 0.65,-0.633C0.674,-0.603 0.692,-0.564 0.705,-0.516L0.619,-0.492C0.608,-0.529 0.595,-0.557 0.579,-0.578C0.563,-0.599 0.54,-0.616 0.511,-0.628C0.481,-0.641 0.448,-0.647 0.412,-0.647C0.369,-0.647 0.331,-0.64 0.3,-0.627C0.268,-0.614 0.243,-0.597 0.223,-0.575C0.204,-0.554 0.189,-0.53 0.178,-0.504C0.16,-0.46 0.151,-0.412 0.151,-0.36C0.151,-0.297 0.162,-0.243 0.184,-0.2C0.206,-0.157 0.238,-0.125 0.28,-0.104C0.322,-0.084 0.366,-0.073 0.414,-0.073C0.455,-0.073 0.495,-0.081 0.534,-0.097C0.573,-0.113 0.602,-0.13 0.623,-0.147L0.623,-0.281L0.412,-0.281Z" style="fill-rule:nonzero;"/>
        </g>
        <g transform="matrix(300,0,0,300,1323.8,290.538)">
            <path d="M0.079,0L0.079,-0.716L0.597,-0.716L0.597,-0.631L0.174,-0.631L0.174,-0.412L0.57,-0.412L0.57,-0.328L0.174,-0.328L0.174,-0.084L0.613,-0.084L0.613,0L0.079,0Z" style="fill-rule:nonzero;"/>
        </g>
        <g transform="matrix(300,0,0,300,1523.9,290.538)">
            <path d="M0.259,0L0.259,-0.631L0.023,-0.631L0.023,-0.716L0.591,-0.716L0.591,-0.631L0.354,-0.631L0.354,0L0.259,0Z" style="fill-rule:nonzero;"/>
        </g>
        <g transform="matrix(300,0,0,300,470.917,600.353)">
            <path d="M0.077,0L0.077,-0.716L0.347,-0.716C0.395,-0.716 0.431,-0.714 0.456,-0.709C0.491,-0.703 0.521,-0.692 0.544,-0.676C0.568,-0.659 0.587,-0.636 0.602,-0.606C0.616,-0.577 0.624,-0.544 0.624,-0.509C0.624,-0.448 0.604,-0.396 0.565,-0.354C0.527,-0.312 0.457,-0.291 0.355,-0.291L0.172,-0.291L0.172,0L0.077,0ZM0.172,-0.375L0.357,-0.375C0.418,-0.375 0.462,-0.387 0.487,-0.41C0.513,-0.432 0.526,-0.465 0.526,-0.506C0.526,-0.536 0.518,-0.561 0.503,-0.583C0.488,-0.604 0.468,-0.618 0.443,-0.625C0.427,-0.629 0.398,-0.631 0.355,-0.631L0.172,-0.631L0.172,-0.375Z" style="fill:rgb(102,51,153);fill-rule:nonzero;"/>
        </g>
        <g transform="matrix(300,0,0,300,671.015,600.353)">
            <path d="M0.079,0L0.079,-0.716L0.396,-0.716C0.46,-0.716 0.508,-0.709 0.542,-0.697C0.575,-0.684 0.601,-0.661 0.621,-0.628C0.641,-0.596 0.651,-0.56 0.651,-0.521C0.651,-0.47 0.634,-0.427 0.602,-0.392C0.569,-0.357 0.518,-0.335 0.449,-0.326C0.474,-0.314 0.493,-0.302 0.506,-0.29C0.534,-0.265 0.56,-0.233 0.585,-0.195L0.709,0L0.59,0L0.496,-0.149C0.468,-0.192 0.445,-0.225 0.427,-0.248C0.409,-0.27 0.393,-0.286 0.379,-0.295C0.365,-0.305 0.351,-0.311 0.336,-0.314C0.325,-0.317 0.308,-0.318 0.283,-0.318L0.173,-0.318L0.173,0L0.079,0ZM0.173,-0.4L0.377,-0.4C0.42,-0.4 0.454,-0.404 0.479,-0.413C0.503,-0.422 0.521,-0.437 0.534,-0.456C0.547,-0.476 0.553,-0.497 0.553,-0.521C0.553,-0.554 0.541,-0.582 0.516,-0.604C0.492,-0.626 0.453,-0.637 0.4,-0.637L0.173,-0.637L0.173,-0.4Z" style="fill:rgb(102,51,153);fill-rule:nonzero;"/>
        </g>
        <g transform="matrix(300,0,0,300,887.665,600.353)">
            <path d="M0.048,-0.349C0.048,-0.467 0.08,-0.56 0.144,-0.628C0.208,-0.695 0.29,-0.729 0.391,-0.729C0.457,-0.729 0.517,-0.713 0.57,-0.681C0.623,-0.65 0.663,-0.606 0.691,-0.549C0.719,-0.493 0.733,-0.429 0.733,-0.357C0.733,-0.284 0.718,-0.219 0.689,-0.162C0.66,-0.105 0.618,-0.061 0.564,-0.032C0.511,-0.003 0.453,0.012 0.391,0.012C0.323,0.012 0.263,-0.004 0.21,-0.037C0.157,-0.069 0.117,-0.114 0.089,-0.17C0.062,-0.226 0.048,-0.286 0.048,-0.349ZM0.146,-0.347C0.146,-0.261 0.169,-0.193 0.216,-0.143C0.262,-0.094 0.32,-0.069 0.39,-0.069C0.461,-0.069 0.52,-0.094 0.566,-0.144C0.612,-0.194 0.635,-0.265 0.635,-0.357C0.635,-0.416 0.625,-0.467 0.606,-0.51C0.586,-0.553 0.557,-0.587 0.519,-0.611C0.481,-0.635 0.439,-0.647 0.392,-0.647C0.325,-0.647 0.267,-0.624 0.219,-0.578C0.17,-0.532 0.146,-0.455 0.146,-0.347Z" style="fill:rgb(102,51,153);fill-rule:nonzero;"/>
        </g>
        <g transform="matrix(300,0,0,300,1121.02,600.353)">
            <path d="M0.073,0L0.073,-0.716L0.342,-0.716C0.396,-0.716 0.44,-0.709 0.473,-0.694C0.506,-0.68 0.532,-0.657 0.551,-0.627C0.57,-0.597 0.579,-0.566 0.579,-0.533C0.579,-0.502 0.571,-0.473 0.554,-0.446C0.538,-0.419 0.513,-0.397 0.479,-0.381C0.522,-0.368 0.556,-0.347 0.579,-0.316C0.602,-0.285 0.614,-0.249 0.614,-0.208C0.614,-0.174 0.607,-0.143 0.593,-0.114C0.578,-0.085 0.561,-0.063 0.54,-0.047C0.519,-0.032 0.493,-0.02 0.462,-0.012C0.43,-0.004 0.392,0 0.346,0L0.073,0ZM0.168,-0.415L0.323,-0.415C0.365,-0.415 0.395,-0.418 0.413,-0.423C0.437,-0.431 0.455,-0.442 0.468,-0.459C0.48,-0.476 0.486,-0.496 0.486,-0.521C0.486,-0.545 0.48,-0.566 0.469,-0.584C0.457,-0.602 0.441,-0.615 0.42,-0.621C0.399,-0.628 0.362,-0.631 0.311,-0.631L0.168,-0.631L0.168,-0.415ZM0.168,-0.084L0.346,-0.084C0.377,-0.084 0.398,-0.086 0.411,-0.088C0.432,-0.092 0.451,-0.098 0.465,-0.107C0.48,-0.117 0.492,-0.13 0.501,-0.147C0.511,-0.165 0.516,-0.185 0.516,-0.208C0.516,-0.234 0.509,-0.257 0.495,-0.277C0.481,-0.297 0.462,-0.311 0.438,-0.319C0.414,-0.327 0.379,-0.331 0.333,-0.331L0.168,-0.331L0.168,-0.084Z" style="fill:rgb(102,51,153);fill-rule:nonzero;"/>
        </g>
        <g transform="matrix(300,0,0,300,1321.11,600.353)">
            <path d="M0.079,0L0.079,-0.716L0.597,-0.716L0.597,-0.631L0.174,-0.631L0.174,-0.412L0.57,-0.412L0.57,-0.328L0.174,-0.328L0.174,-0.084L0.613,-0.084L0.613,0L0.079,0Z" style="fill:rgb(102,51,153);fill-rule:nonzero;"/>
        </g>
    </g>
    <path d="M27.971,388.037L1039.45,388.037" style="fill:none;stroke:black;stroke-width:2.5px;"/>
    <g transform="matrix(2.05991e-17,-0.37108,0.37108,2.05991e-17,568.484,469.678)">
        <path d="M651.927,110.239L651.927,339.45" style="fill:none;stroke:black;stroke-width:2.69px;stroke-dasharray:2.69,13.47,0,0;"/>
    </g>
    <g transform="matrix(1.22331,0,0,1,-121.212,64.6373)">
        <path d="M769.206,72.603C769.206,72.603 777.585,71.924 786.452,57.692C795.319,43.461 802.92,60.222 803.918,62.972C804.915,65.722 807.506,75.262 798.509,76.598C789.512,77.934 790.922,70.712 792.87,64.431C794.818,58.15 800.486,41.743 811.945,55.215C823.403,68.686 820.054,73.76 816.775,75.363C813.02,77.2 806.462,76.441 810.837,60.908C815.212,45.374 825.03,50.686 828.215,53.285C831.401,55.883 833.169,58.795 834.148,67.19C835.126,75.586 818.005,72.377 824.573,58.389C831.141,44.4 841.447,56.513 841.902,53.402" style="fill:none;stroke:black;stroke-width:3.13px;"/>
    </g>
    <g transform="matrix(1,0,0,1,3.59487,1.12835)">
        <ellipse cx="966.561" cy="115.839" rx="7.776" ry="7.361" style="fill:none;stroke:black;stroke-width:3.5px;"/>
    </g>
    <g transform="matrix(2.08613e-17,-0.375804,0.375804,2.08613e-17,574.673,479.77)">
        <path d="M650.556,102.563C611.599,180.507 611.294,257.066 650.556,332.208" style="fill:none;stroke:black;stroke-width:3.99px;stroke-dasharray:3.99,19.96,0,0;"/>
    </g>
    <g transform="matrix(4.24281e-17,-0.35516,0.35516,4.24281e-17,573.325,474.284)">
        <path d="M650.556,102.563C611.599,180.507 611.294,257.066 650.556,332.208" style="fill:none;stroke:black;stroke-width:4.22px;stroke-dasharray:4.22,21.12,0,0;"/>
    </g>
    <g transform="matrix(4.24281e-17,-0.35516,0.35516,4.24281e-17,574.595,458.769)">
        <path d="M650.556,102.563C611.599,180.507 611.294,257.066 650.556,332.208" style="fill:none;stroke:black;stroke-width:4.22px;stroke-dasharray:4.22,21.12,0,0;"/>
    </g>
    <g transform="matrix(2.02925e-17,-0.365558,0.365558,2.02925e-17,571.808,460.313)">
        <path d="M650.556,102.563C693.044,182.895 688.194,259.012 650.556,332.208" style="fill:none;stroke:black;stroke-width:4.1px;stroke-dasharray:4.1,20.52,0,0;"/>
    </g>
    <g transform="matrix(8.1115e-17,-0.493223,0.351825,1.75076e-17,574.957,541.082)">
        <path d="M650.556,102.563C693.044,182.895 688.194,259.012 650.556,332.208" style="fill:none;stroke:black;stroke-width:3.5px;stroke-dasharray:3.5,17.51,0,0;"/>
    </g>
    <g transform="matrix(4.24281e-17,-0.363546,0.363546,4.24281e-17,572.884,465.562)">
        <path d="M650.556,102.563C693.044,182.895 688.194,259.012 650.556,332.208" style="fill:none;stroke:black;stroke-width:4.13px;stroke-dasharray:4.13,20.63,0,0;"/>
    </g>
    <g transform="matrix(1,0,0,1,40.2414,472.865)">
        <path d="M1067.35,162.63C1066.2,169.09 1068.58,173.043 1073.95,174.869C1075.68,175.471 1077.47,175.539 1079.35,174.963C1084.96,172.139 1086.69,167.947 1085.96,162.886" style="fill:white;stroke:black;stroke-width:3.5px;"/>
    </g>
    <g transform="matrix(0.707107,0.707107,-0.707107,0.707107,443.83,-693.257)">
        <rect x="1039.9" y="171.259" width="36.965" height="8.508"/>
    </g>
    <path d="M982.865,116.315C982.865,116.315 1050.08,115.559 1065.94,116.371C1078.27,117.002 1075.71,122.66 1077.99,128.169L1076.01,161.469C1075.75,169.475 1086.46,174.268 1092.83,181.716C1121.88,239.609 1141.99,325.297 1144.96,361.511C1146.25,377.069 1122.98,390.972 1122.98,390.972C1104.29,410.597 1083.88,435.367 1083.66,443.62C1083.44,451.873 1103.46,466.034 1103.46,466.034C1122.12,484.892 1144.83,512.624 1146.86,528.567C1148.34,540.171 1127.01,551.973 1115.65,561.689L1117.49,627.837" style="fill:none;stroke:black;stroke-width:2.5px;stroke-dasharray:2.5,12.5,0,0;"/>
    <g transform="matrix(0.707107,-0.707107,0.707107,0.707107,276.331,1010.21)">
        <rect x="1039.9" y="171.259" width="36.965" height="8.508"/>
    </g>
    <g transform="matrix(0.814967,-0.579507,0.579507,0.814967,185.603,1024.24)">
        <rect x="1039.9" y="171.259" width="36.965" height="8.508"/>
    </g>
    <g transform="matrix(0.707107,0.707107,-0.707107,0.707107,456.03,-407.229)">
        <rect x="1039.9" y="171.259" width="36.965" height="8.508"/>
    </g>
    <g transform="matrix(1,0,0,1,-2.51116,0)">
        <rect x="911.59" y="110.92" width="33.819" height="13.122" style="fill:white;stroke:black;stroke-width:3.5px;"/>
    </g>
    <path d="M458.671,246.795L444.11,246.795L444.11,259.255L459.118,259.255L458.671,246.795Z"/>
    <path d="M444.896,251.322L437.955,251.325L437.955,255.181L444.926,255.263L444.896,251.322Z"/>
    <path d="M227.516,237.503C247.192,186.65 269.064,42.939 328.587,39.028C358.291,47.034 366.831,102.466 379.743,146.064L384.291,159.251" style="fill:none;stroke:black;stroke-width:3.5px;stroke-dasharray:3.5,17.5,0,0;"/>
    <g transform="matrix(0.995798,-0.0915743,0.119725,1.30191,-27.896,-36.1612)">
        <path d="M438.248,251.191C429.563,249.59 423.218,247.181 414.076,247.314C409.754,247.376 408.601,248.869 408.406,250.751C408.233,252.414 410.203,254.267 413.851,255.029C423.451,257.034 428.762,254.494 437.841,255.022L438.248,251.191Z"/>
    </g>
    <g transform="matrix(1,0,0,1,8.79818,34.7487)">
        <path d="M205.436,212.62L205.538,207.02C205.538,207.02 211.314,205.348 215.804,207.2C220.768,209.248 223.262,214.763 223.262,214.763L218.061,220.518L205.436,212.62Z" style="fill:white;stroke:black;stroke-width:1px;"/>
    </g>
    <g transform="matrix(1,0,0,1,60.6484,169.5)">
        <g transform="matrix(12,0,0,12,557.687,59.4008)">
            <path d="M0.074,0L0.074,-0.716L0.215,-0.716L0.508,-0.238L0.508,-0.716L0.642,-0.716L0.642,0L0.497,0L0.208,-0.467L0.208,0L0.074,0Z" style="fill:white;fill-rule:nonzero;"/>
        </g>
    </g>
    <g transform="matrix(1,0,0,1,120.573,172.029)">
        <g transform="matrix(12,0,0,12,557.687,59.4008)">
            <path d="M0.036,-0.233L0.177,-0.247C0.185,-0.199 0.202,-0.165 0.228,-0.143C0.254,-0.12 0.289,-0.109 0.333,-0.109C0.38,-0.109 0.415,-0.119 0.438,-0.139C0.462,-0.159 0.474,-0.182 0.474,-0.208C0.474,-0.225 0.469,-0.239 0.459,-0.251C0.449,-0.263 0.431,-0.273 0.407,-0.282C0.39,-0.288 0.351,-0.299 0.291,-0.313C0.214,-0.333 0.159,-0.356 0.128,-0.384C0.084,-0.424 0.062,-0.472 0.062,-0.528C0.062,-0.565 0.072,-0.599 0.093,-0.631C0.114,-0.662 0.143,-0.687 0.182,-0.703C0.221,-0.72 0.268,-0.728 0.323,-0.728C0.413,-0.728 0.481,-0.708 0.526,-0.669C0.572,-0.63 0.595,-0.577 0.598,-0.511L0.453,-0.505C0.447,-0.542 0.434,-0.568 0.413,-0.584C0.393,-0.6 0.362,-0.608 0.322,-0.608C0.28,-0.608 0.247,-0.6 0.223,-0.583C0.208,-0.571 0.2,-0.557 0.2,-0.538C0.2,-0.521 0.207,-0.507 0.222,-0.495C0.24,-0.479 0.284,-0.463 0.354,-0.447C0.425,-0.43 0.477,-0.413 0.51,-0.395C0.544,-0.378 0.571,-0.353 0.59,-0.323C0.609,-0.292 0.618,-0.254 0.618,-0.208C0.618,-0.167 0.607,-0.129 0.584,-0.093C0.561,-0.057 0.529,-0.031 0.487,-0.013C0.446,0.004 0.394,0.013 0.332,0.013C0.241,0.013 0.172,-0.008 0.123,-0.05C0.075,-0.092 0.046,-0.153 0.036,-0.233Z" style="fill:white;fill-rule:nonzero;"/>
        </g>
    </g>
    <g transform="matrix(1,0,0,1,8.79818,34.7487)">
        <path d="M189.799,237.516C191.962,224.118 193.323,218.195 205.461,207.021C208.203,212.26 216.125,215.36 223.343,215.013C224.173,226.112 214.915,247.407 206.987,253.74L189.799,237.516Z" style="stroke:black;stroke-width:1px;"/>
    </g>
    <g transform="matrix(0.809824,-0.267067,0.349269,1.05908,21.1374,115.46)">
        <circle cx="376.343" cy="175.254" r="5.826"/>
    </g>
    <g transform="matrix(0.809824,-0.267067,0.349269,1.05908,11.2419,92.6508)">
        <circle cx="376.343" cy="175.254" r="5.826"/>
    </g>
    <g transform="matrix(0.757331,-0.311367,0.380253,0.924882,28.6483,-29.2992)">
        <rect x="305.305" y="314.877" width="17.412" height="41.857"/>
    </g>
    <g transform="matrix(0.924882,-0.380253,0.380253,0.924882,-25.4884,-7.39956)">
        <path d="M322.117,321.771L331.393,328.317L330.97,340.847L322.547,348.134L322.117,321.771Z"/>
    </g>
    <g transform="matrix(1,0,0,1,-29.4953,173.311)">
        <g transform="matrix(10,0,0,10,475.76,82.869)">
            <rect x="0.032" y="-0.303" width="0.27" height="0.088" style="fill:white;fill-rule:nonzero;"/>
        </g>
        <g transform="matrix(10,0,0,10,479.09,82.869)">
            <path d="M0,0.012L0.208,-0.728L0.278,-0.728L0.071,0.012L0,0.012Z" style="fill:white;fill-rule:nonzero;"/>
        </g>
        <g transform="matrix(10,0,0,10,481.868,82.869)">
            <path d="M0.25,-0.116L0.25,-0.312L0.056,-0.312L0.056,-0.394L0.25,-0.394L0.25,-0.589L0.333,-0.589L0.333,-0.394L0.528,-0.394L0.528,-0.312L0.333,-0.312L0.333,-0.116L0.25,-0.116Z" style="fill:white;fill-rule:nonzero;"/>
        </g>
    </g>
</svg>
